<mxfile host="65bd71144e">
    <diagram id="73xuU_HKvgiZJi6Y1MkD" name="Page-1">
        <mxGraphModel dx="536" dy="546" grid="1" gridSize="10" guides="1" tooltips="1" connect="1" arrows="1" fold="1" page="1" pageScale="1" pageWidth="850" pageHeight="1100" math="0" shadow="0">
            <root>
                <mxCell id="0"/>
                <mxCell id="1" parent="0"/>
                <mxCell id="3" value="Aplicación" style="rounded=0;whiteSpace=wrap;html=1;fillColor=none;fontColor=light-dark(#FFFFFF,#006EAF);strokeColor=light-dark(#006EAF,#006EAF);" vertex="1" parent="1">
                    <mxGeometry x="40" y="40" width="190" height="40" as="geometry"/>
                </mxCell>
                <mxCell id="7" value="Hardware o software A" style="rounded=0;whiteSpace=wrap;html=1;fillColor=none;fontColor=light-dark(#FFFFFF,#006EAF);strokeColor=light-dark(#006EAF,#006EAF);" vertex="1" parent="1">
                    <mxGeometry x="40" y="100" width="190" height="40" as="geometry"/>
                </mxCell>
                <mxCell id="8" value="Interfaz con A" style="rounded=0;whiteSpace=wrap;html=1;fillColor=none;fontColor=light-dark(#FFFFFF,#006EAF);strokeColor=light-dark(#006EAF,#006EAF);" vertex="1" parent="1">
                    <mxGeometry x="50" y="80" width="170" height="20" as="geometry"/>
                </mxCell>
                <mxCell id="10" value="Aplicación" style="rounded=0;whiteSpace=wrap;html=1;fillColor=none;fontColor=light-dark(#FFFFFF,#006EAF);strokeColor=light-dark(#006EAF,#006EAF);" vertex="1" parent="1">
                    <mxGeometry x="280" y="40" width="190" height="40" as="geometry"/>
                </mxCell>
                <mxCell id="11" value="Implementación&lt;br&gt;imitando A en B" style="rounded=0;whiteSpace=wrap;html=1;fillColor=none;fontColor=light-dark(#FFFFFF,#006EAF);strokeColor=light-dark(#006EAF,#006EAF);" vertex="1" parent="1">
                    <mxGeometry x="280" y="100" width="190" height="40" as="geometry"/>
                </mxCell>
                <mxCell id="12" value="Interfaz con A" style="rounded=0;whiteSpace=wrap;html=1;fillColor=none;fontColor=light-dark(#FFFFFF,#006EAF);strokeColor=light-dark(#006EAF,#006EAF);" vertex="1" parent="1">
                    <mxGeometry x="290" y="80" width="170" height="20" as="geometry"/>
                </mxCell>
                <mxCell id="13" value="Hardware o software B" style="rounded=0;whiteSpace=wrap;html=1;fillColor=none;fontColor=light-dark(#FFFFFF,#006EAF);strokeColor=light-dark(#006EAF,#006EAF);" vertex="1" parent="1">
                    <mxGeometry x="280" y="160" width="190" height="40" as="geometry"/>
                </mxCell>
                <mxCell id="14" value="Interfaz con B" style="rounded=0;whiteSpace=wrap;html=1;fillColor=none;fontColor=light-dark(#FFFFFF,#006EAF);strokeColor=light-dark(#006EAF,#006EAF);" vertex="1" parent="1">
                    <mxGeometry x="290" y="140" width="170" height="20" as="geometry"/>
                </mxCell>
            </root>
        </mxGraphModel>
    </diagram>
</mxfile>